<svg id="Capa_1" enable-background="new 0 0 512 512" height="512" viewBox="0 0 512 512" width="512" xmlns="http://www.w3.org/2000/svg"><g><g><path d="m317.24 127.742c12.458 0 24.528 4.982 32.914 14.195 82.236 90.346 114.749 252.961 125.606 325.676 2.899 19.418-12.067 36.887-31.701 36.887h-123.93c-26.563 0-44.462-21.534-44.462-48.097v-283.453c0-24.968 16.606-45.208 41.573-45.208z" fill="#ff8086"/><path d="m320.129 480.452c-13.26 0-24.048-10.788-24.048-24.048v-323.393c-14.3 7.592-24.048 22.62-24.048 39.939v283.453c0 26.563 21.534 48.097 48.097 48.097h123.93c15.128 0 27.387-10.405 30.935-24.048z" fill="#e5646e"/><path d="m194.76 127.742c-12.458 0-24.528 4.982-32.914 14.195-82.237 90.346-114.749 252.96-125.607 325.676-2.899 19.418 12.067 36.887 31.701 36.887h123.931c26.563 0 48.097-21.534 48.097-48.097v-283.453c0-24.968-20.241-45.208-45.208-45.208z" fill="#ff8086"/><path d="m227.649 480.452h-137.665c-6.996 0-13.625-3.037-18.188-8.333-4.59-5.326-6.626-12.38-5.584-19.354 9.739-65.228 40.927-226.725 119.969-317.346l6.61-7.579c-11.75.497-23.003 5.372-30.945 14.096-82.236 90.347-114.749 252.961-125.607 325.677-2.899 19.418 12.068 36.887 31.701 36.887h123.931c17.792 0 33.29-9.686 41.609-24.048z" fill="#e5646e"/><circle cx="183.855" cy="424.339" fill="#db4655" r="16.032"/><circle cx="328.145" cy="448.387" fill="#db4655" r="16.032"/><path d="m393.95 355.461c-4.333-3.291-7.784-7.596-9.347-12.808l-16.377-54.589-8.705 8.705-68.706-68.706c-12.027-12.026-18.783-28.337-18.783-45.345v-14.895c0-8.855-7.178-16.032-16.032-16.032s-16.032 7.178-16.032 16.032v14.895c0 17.008-6.756 33.319-18.783 45.345l-68.706 68.706-8.705-8.705-16.377 54.589c-1.564 5.212-5.014 9.517-9.347 12.808-4.807 3.651-7.49 9.95-5.865 16.729 1.39 5.801 6.267 10.49 12.106 11.707 10.362 2.16 19.483-5.691 19.483-15.672 0-1.912-.342-3.737-.963-5.428-1.916-5.212.068-11.087 3.995-15.014l86.521-86.521c6.261-6.261 14.467-9.392 22.673-9.392s16.412 3.131 22.673 9.392l86.521 86.521c3.927 3.927 5.911 9.802 3.995 15.014-.621 1.69-.963 3.516-.963 5.428 0 9.981 9.121 17.832 19.483 15.672 5.84-1.217 10.716-5.906 12.106-11.707 1.625-6.778-1.058-13.078-5.865-16.729z" fill="#e5646e"/><circle cx="143.774" cy="288.065" fill="#db4655" r="16.032"/><path d="m272.032 7.5h-32.065v176.355c0-8.855 7.178-16.032 16.032-16.032s16.032 7.178 16.032 16.032v-176.355z" fill="#db4655"/><g><circle cx="368.226" cy="288.065" fill="#db4655" r="16.032"/></g></g><g><path d="m239.968 288.579c-4.142 0-7.5 3.358-7.5 7.5v160.325c0 22.385-18.211 40.597-40.597 40.597h-123.931c-7.146 0-13.917-3.103-18.58-8.513-4.688-5.44-6.767-12.645-5.703-19.767 9.978-66.825 42.009-231.948 123.735-321.735 6.793-7.463 16.768-11.743 27.367-11.743 20.792 0 37.708 16.916 37.708 37.708v9.768c0 15.126-5.891 29.347-16.586 40.043l-52.426 52.426c-4.209-6.41-11.457-10.654-19.681-10.654-12.976 0-23.533 10.557-23.533 23.532s10.557 23.532 23.533 23.532c11.249 0 20.675-7.936 22.985-18.502l59.728-59.728c13.529-13.528 20.98-31.516 20.98-50.649v-175.219c0-4.142-3.358-7.5-7.5-7.5s-7.5 3.358-7.5 7.5v128.675c-9.579-9.82-22.94-15.933-37.708-15.933-14.812 0-28.831 6.067-38.46 16.646-36.462 40.058-67.132 97.99-91.159 172.188-19.65 60.683-30.596 119.105-36.319 157.43-1.708 11.443 1.636 23.024 9.176 31.774 7.515 8.719 18.428 13.72 29.943 13.72h123.931c30.656 0 55.597-24.94 55.597-55.597v-160.324c0-4.142-3.358-7.5-7.5-7.5zm-96.194 8.018c-4.705 0-8.533-3.828-8.533-8.532s3.828-8.532 8.533-8.532 8.532 3.828 8.532 8.532-3.827 8.532-8.532 8.532z"/><path d="m170.536 218.632c-2.929 2.929-2.929 7.678 0 10.606 1.464 1.464 3.384 2.197 5.303 2.197s3.839-.732 5.303-2.197l14.195-14.195c2.929-2.929 2.929-7.678 0-10.606-2.929-2.929-7.678-2.929-10.606 0z"/><path d="m189.897 360.99-22.044 6.012c-3.996 1.09-6.352 5.213-5.262 9.209.91 3.335 3.933 5.528 7.231 5.528.653 0 1.317-.086 1.978-.266l22.044-6.012c3.996-1.09 6.352-5.213 5.262-9.209-1.089-3.996-5.212-6.353-9.209-5.262z"/><path d="m183.855 447.871c12.976 0 23.532-10.557 23.532-23.532s-10.557-23.532-23.532-23.532-23.532 10.557-23.532 23.532 10.556 23.532 23.532 23.532zm0-32.064c4.705 0 8.532 3.828 8.532 8.532s-3.828 8.532-8.532 8.532-8.532-3.828-8.532-8.532 3.827-8.532 8.532-8.532z"/><path d="m90.374 411.02c-2.929 2.929-2.929 7.678 0 10.606l8.016 8.016c1.464 1.464 3.384 2.197 5.303 2.197s3.839-.732 5.303-2.197c2.929-2.929 2.929-7.678 0-10.606l-8.016-8.016c-2.928-2.929-7.677-2.929-10.606 0z"/><path d="m200.889 183.339c1.919 0 3.839-.732 5.303-2.197 2.929-2.929 2.929-7.678 0-10.606l-8.016-8.016c-2.929-2.929-7.678-2.929-10.606 0-2.929 2.929-2.929 7.678 0 10.606l8.016 8.016c1.464 1.464 3.384 2.197 5.303 2.197z"/><path d="m145.262 422.835c0-4.142-3.358-7.5-7.5-7.5h-.08c-4.142 0-7.46 3.358-7.46 7.5s3.398 7.5 7.54 7.5 7.5-3.357 7.5-7.5z"/><path d="m151.274 242.974c0-4.142-3.358-7.5-7.5-7.5h-.081c-4.142 0-7.459 3.358-7.459 7.5s3.398 7.5 7.54 7.5 7.5-3.358 7.5-7.5z"/><path d="m206.4 338.15c4.142 0 7.5-3.358 7.5-7.5s-3.358-7.5-7.5-7.5h-.081c-4.142 0-7.459 3.358-7.459 7.5s3.398 7.5 7.54 7.5z"/><path d="m111.274 324.137c0-4.142-3.358-7.5-7.5-7.5h-.081c-4.142 0-7.46 3.358-7.46 7.5s3.398 7.5 7.541 7.5 7.5-3.358 7.5-7.5z"/><path d="m74.555 456.919c-4.142 0-7.46 3.358-7.46 7.5s3.398 7.5 7.541 7.5 7.5-3.358 7.5-7.5-3.358-7.5-7.5-7.5z"/><path d="m122.438 451.1-8.016 8.016c-2.929 2.929-2.929 7.678 0 10.606 1.464 1.464 3.384 2.197 5.303 2.197s3.839-.732 5.303-2.197l8.016-8.016c2.929-2.929 2.929-7.678 0-10.606-2.928-2.929-7.677-2.929-10.606 0z"/><path d="m483.179 466.505c-5.723-38.325-16.668-96.747-36.319-157.43-24.027-74.197-54.697-132.13-91.159-172.188-9.629-10.579-23.647-16.646-38.46-16.646-14.769 0-28.13 6.114-37.708 15.933v-128.674c0-4.142-3.358-7.5-7.5-7.5s-7.5 3.358-7.5 7.5v175.218c0 19.133 7.451 37.121 20.98 50.649l59.728 59.728c2.311 10.566 11.736 18.502 22.985 18.502 12.976 0 23.533-10.557 23.533-23.532s-10.557-23.532-23.533-23.532c-8.224 0-15.472 4.244-19.681 10.654l-52.426-52.426c-10.696-10.696-16.586-24.917-16.586-40.043v-9.768c0-20.792 16.916-37.708 37.708-37.708 10.599 0 20.574 4.28 27.367 11.743 81.726 89.787 113.757 254.91 123.735 321.735 1.063 7.123-1.015 14.327-5.703 19.767-4.662 5.41-11.434 8.513-18.58 8.513h-123.931c-22.385 0-40.597-18.211-40.597-40.597v-160.324c0-4.142-3.358-7.5-7.5-7.5s-7.5 3.358-7.5 7.5v160.325c0 30.656 24.94 55.597 55.597 55.597h123.931c11.515 0 22.428-5.001 29.942-13.72 7.54-8.751 10.885-20.332 9.177-31.776zm-114.953-186.973c4.705 0 8.533 3.828 8.533 8.532s-3.828 8.532-8.533 8.532-8.532-3.828-8.532-8.532 3.827-8.532 8.532-8.532z"/><path d="m363.662 356.858c-1.869 3.372-2.936 7.247-2.936 11.367 0 12.976 10.557 23.533 23.533 23.533s23.532-10.557 23.532-23.533-10.557-23.532-23.532-23.532c-3.39 0-6.612.726-9.526 2.022l-90.756-90.755c-15.426-15.426-40.526-15.426-55.952 0l-90.756 90.755c-2.915-1.296-6.136-2.022-9.526-2.022-12.976 0-23.532 10.557-23.532 23.532 0 12.976 10.557 23.533 23.532 23.533 12.976 0 23.533-10.557 23.533-23.533 0-4.121-1.068-7.995-2.937-11.367l90.292-90.292c9.578-9.577 25.161-9.577 34.739 0zm29.129 11.368c0 4.705-3.828 8.533-8.532 8.533-4.705 0-8.533-3.828-8.533-8.533s3.828-8.532 8.533-8.532c4.704-.001 8.532 3.827 8.532 8.532zm-265.049 8.532c-4.705 0-8.532-3.828-8.532-8.533s3.828-8.532 8.532-8.532c4.705 0 8.533 3.828 8.533 8.532-.001 4.706-3.828 8.533-8.533 8.533z"/><path d="m328.145 223.419c1.919 0 3.839-.732 5.303-2.197l8.016-8.016c2.929-2.929 2.929-7.678 0-10.606-2.929-2.929-7.678-2.929-10.606 0l-8.016 8.016c-2.929 2.929-2.929 7.678 0 10.606 1.464 1.465 3.384 2.197 5.303 2.197z"/><path d="m332.807 390.966c1.077.539 2.221.793 3.349.793 2.751 0 5.4-1.52 6.714-4.147 1.853-3.705.351-8.21-3.354-10.062l-16.032-8.017c-3.705-1.852-8.209-.351-10.062 3.354s-.351 8.21 3.354 10.062z"/><path d="m328.145 471.919c12.976 0 23.532-10.557 23.532-23.532s-10.557-23.532-23.532-23.532-23.532 10.557-23.532 23.532 10.556 23.532 23.532 23.532zm0-32.064c4.705 0 8.532 3.828 8.532 8.532s-3.828 8.532-8.532 8.532-8.532-3.828-8.532-8.532 3.827-8.532 8.532-8.532z"/><path d="m403.003 419.036c-2.929 2.929-2.929 7.678 0 10.606 1.464 1.464 3.384 2.197 5.303 2.197s3.839-.732 5.303-2.197l8.016-8.016c2.929-2.929 2.929-7.678 0-10.606-2.929-2.929-7.678-2.929-10.606 0z"/><path d="m325.432 170.536-8.016-8.016c-2.929-2.929-7.678-2.929-10.606 0-2.929 2.929-2.929 7.678 0 10.606l8.016 8.016c1.464 1.464 3.384 2.197 5.303 2.197s3.839-.732 5.303-2.197c2.929-2.929 2.929-7.678 0-10.606z"/><path d="m360.209 400.807c-4.142 0-7.5 3.358-7.5 7.5s3.358 7.5 7.5 7.5h.081c4.142 0 7.46-3.358 7.46-7.5s-3.398-7.5-7.541-7.5z"/><path d="m360.726 242.974c0 4.142 3.358 7.5 7.5 7.5h.081c4.142 0 7.459-3.358 7.459-7.5s-3.398-7.5-7.54-7.5-7.5 3.358-7.5 7.5z"/><path d="m304.017 336.677c-4.142 0-7.5 3.358-7.5 7.5s3.358 7.5 7.5 7.5h.08c4.142 0 7.46-3.358 7.46-7.5s-3.398-7.5-7.54-7.5z"/><path d="m408.226 316.637c-4.142 0-7.5 3.358-7.5 7.5s3.358 7.5 7.5 7.5h.081c4.142 0 7.46-3.358 7.46-7.5s-3.399-7.5-7.541-7.5z"/><path d="m437.445 471.919c4.142 0 7.46-3.358 7.46-7.5s-3.398-7.5-7.541-7.5-7.5 3.358-7.5 7.5 3.358 7.5 7.5 7.5z"/><path d="m378.955 451.1c-2.929 2.929-2.929 7.678 0 10.606l8.016 8.016c1.464 1.464 3.384 2.197 5.303 2.197s3.839-.732 5.303-2.197c2.929-2.929 2.929-7.678 0-10.606l-8.016-8.016c-2.928-2.929-7.677-2.929-10.606 0z"/></g></g></svg>